solid case01
facet normal 0.0 0.0 -1.0
  outer loop
    vertex -116.07098385834593 -163.07306043934025 0.0
    vertex -126.48707766092338 -164.57306043934025 0.0
    vertex -126.48707766092338 -163.07306043934025 0.0
  endloop
endfacet
facet normal 0.0 0.0 -1.0
  outer loop
    vertex -126.48707766092338 -164.57306043934025 0.0
    vertex -116.07098385834593 -163.07306043934025 0.0
    vertex -122.74507018156879 -205.63556043934028 0.0
  endloop
endfacet
facet normal 0.0 0.0 -1.0
  outer loop
    vertex -122.74507018156879 -205.63556043934028 0.0
    vertex -116.07098385834593 -163.07306043934025 0.0
    vertex -122.74507018156879 -208.38556043934028 0.0
  endloop
endfacet
facet normal 0.0 0.0 -1.0
  outer loop
    vertex -122.74507018156879 -208.38556043934028 0.0
    vertex -116.07098385834593 -163.07306043934025 0.0
    vertex -116.07098385834593 -164.57306043934025 0.0
  endloop
endfacet
facet normal 0.0 0.0 -1.0
  outer loop
    vertex -122.74507018156879 -208.38556043934028 0.0
    vertex -116.07098385834593 -164.57306043934025 0.0
    vertex -112.32897637899131 -208.38556043934028 0.0
  endloop
endfacet
facet normal 0.0 0.0 -1.0
  outer loop
    vertex -112.32897637899131 -208.38556043934028 0.0
    vertex -116.07098385834593 -164.57306043934025 0.0
    vertex -112.32897637899131 -208.19806043934028 0.0
  endloop
endfacet
facet normal 0.0 0.0 -1.0
  outer loop
    vertex -126.48707766092338 -164.57306043934025 0.0
    vertex -132.82116519138836 -205.63556043934028 0.0
    vertex -132.82116519138836 -164.57306043934025 0.0
  endloop
endfacet
facet normal 0.0 0.0 -1.0
  outer loop
    vertex -132.82116519138836 -205.63556043934028 0.0
    vertex -126.48707766092338 -164.57306043934025 0.0
    vertex -122.74507018156879 -205.63556043934028 0.0
  endloop
endfacet
facet normal 0.0 0.0 -1.0
  outer loop
    vertex -43.19616519138834 -178.3017673351771 0.0
    vertex -44.50866519138834 -188.71786113775454 0.0
    vertex -44.50866519138834 -178.3017673351771 0.0
  endloop
endfacet
facet normal 0.0 0.0 -1.0
  outer loop
    vertex -44.50866519138834 -188.71786113775454 0.0
    vertex -43.19616519138834 -178.3017673351771 0.0
    vertex -43.19616519138834 -188.71786113775454 0.0
  endloop
endfacet
facet normal 0.0 0.0 -1.0
  outer loop
    vertex -44.50866519138834 -164.57306043934025 0.0
    vertex -112.32897637899131 -208.19806043934028 0.0
    vertex -116.07098385834593 -164.57306043934025 0.0
  endloop
endfacet
facet normal 0.0 0.0 -1.0
  outer loop
    vertex -112.32897637899131 -208.19806043934028 0.0
    vertex -44.50866519138834 -164.57306043934025 0.0
    vertex -101.91288257641389 -205.63556043934028 0.0
  endloop
endfacet
facet normal 0.0 0.0 -1.0
  outer loop
    vertex -101.91288257641389 -205.63556043934028 0.0
    vertex -44.50866519138834 -164.57306043934025 0.0
    vertex -44.50866519138834 -205.63556043934028 0.0
  endloop
endfacet
facet normal 0.0 0.0 -1.0
  outer loop
    vertex -44.50866519138834 -205.63556043934028 0.0
    vertex -44.50866519138834 -164.57306043934025 0.0
    vertex -44.50866519138834 -178.3017673351771 0.0
  endloop
endfacet
facet normal 0.0 0.0 -1.0
  outer loop
    vertex -44.50866519138834 -205.63556043934028 0.0
    vertex -44.50866519138834 -178.3017673351771 0.0
    vertex -44.50866519138834 -188.71786113775454 0.0
  endloop
endfacet
facet normal 0.0 0.0 -1.0
  outer loop
    vertex -101.91288257641389 -208.19806043934028 0.0
    vertex -112.32897637899131 -208.19806043934028 0.0
    vertex -101.91288257641389 -205.63556043934028 0.0
  endloop
endfacet
facet normal 1.0 -0.0 -0.0
  outer loop
    vertex -44.50866519138834 -164.57306043934025 0.0
    vertex -44.50866519138834 -178.3017673351771 6.4375
    vertex -44.50866519138834 -178.3017673351771 0.0
  endloop
endfacet
facet normal 1.0 -0.0 -0.0
  outer loop
    vertex -44.50866519138834 -178.3017673351771 6.4375
    vertex -44.50866519138834 -164.57306043934025 0.0
    vertex -44.50866519138834 -164.57306043934025 6.4375
  endloop
endfacet
facet normal -0.0 -0.0 1.0
  outer loop
    vertex -112.32897637899131 -208.38556043934028 6.4375
    vertex -122.74507018156879 -205.63556043934028 6.4375
    vertex -122.74507018156879 -208.38556043934028 6.4375
  endloop
endfacet
facet normal -0.0 -0.0 1.0
  outer loop
    vertex -122.74507018156879 -205.63556043934028 6.4375
    vertex -132.82116519138836 -164.57306043934025 6.4375
    vertex -132.82116519138836 -205.63556043934028 6.4375
  endloop
endfacet
facet normal -0.0 -0.0 1.0
  outer loop
    vertex -132.82116519138836 -164.57306043934025 6.4375
    vertex -122.74507018156879 -205.63556043934028 6.4375
    vertex -124.04434173361972 -199.0599963549186 6.4375
  endloop
endfacet
facet normal -0.0 -0.0 1.0
  outer loop
    vertex -132.82116519138836 -164.57306043934025 6.4375
    vertex -124.04434173361972 -199.0599963549186 6.4375
    vertex -126.48707766092338 -164.57306043934025 6.4375
  endloop
endfacet
facet normal -0.0 -0.0 1.0
  outer loop
    vertex -126.48707766092338 -164.57306043934025 6.4375
    vertex -124.04434173361972 -199.0599963549186 6.4375
    vertex -126.48707766092338 -163.07306043934025 6.4375
  endloop
endfacet
facet normal -0.0 -0.0 1.0
  outer loop
    vertex -124.04434173361972 -199.0599963549186 6.4375
    vertex -122.74507018156879 -205.63556043934028 6.4375
    vertex -51.73184173361974 -199.0599963549186 6.4375
  endloop
endfacet
facet normal -0.0 -0.0 1.0
  outer loop
    vertex -51.73184173361974 -199.0599963549186 6.4375
    vertex -122.74507018156879 -205.63556043934028 6.4375
    vertex -101.91288257641389 -205.63556043934028 6.4375
  endloop
endfacet
facet normal -0.0 -0.0 1.0
  outer loop
    vertex -101.91288257641389 -205.63556043934028 6.4375
    vertex -122.74507018156879 -205.63556043934028 6.4375
    vertex -112.32897637899131 -208.19806043934028 6.4375
  endloop
endfacet
facet normal -0.0 -0.0 1.0
  outer loop
    vertex -112.32897637899131 -208.19806043934028 6.4375
    vertex -122.74507018156879 -205.63556043934028 6.4375
    vertex -112.32897637899131 -208.38556043934028 6.4375
  endloop
endfacet
facet normal -0.0 -0.0 1.0
  outer loop
    vertex -101.91288257641389 -205.63556043934028 6.4375
    vertex -112.32897637899131 -208.19806043934028 6.4375
    vertex -101.91288257641389 -208.19806043934028 6.4375
  endloop
endfacet
facet normal -0.0 -0.0 1.0
  outer loop
    vertex -51.73184173361974 -199.0599963549186 6.4375
    vertex -101.91288257641389 -205.63556043934028 6.4375
    vertex -44.50866519138834 -205.63556043934028 6.4375
  endloop
endfacet
facet normal -0.0 -0.0 1.0
  outer loop
    vertex -51.73184173361974 -199.0599963549186 6.4375
    vertex -44.50866519138834 -205.63556043934028 6.4375
    vertex -50.891191939959256 -185.99317308526986 6.4375
  endloop
endfacet
facet normal -0.0 -0.0 1.0
  outer loop
    vertex -51.73184173361974 -199.0599963549186 6.4375
    vertex -50.891191939959256 -185.99317308526986 6.4375
    vertex -50.978507010093516 -185.32994928219466 6.4375
  endloop
endfacet
facet normal -0.0 -0.0 1.0
  outer loop
    vertex -51.73184173361974 -199.0599963549186 6.4375
    vertex -50.978507010093516 -185.32994928219466 6.4375
    vertex -51.73184173361974 -173.80999635491858 6.4375
  endloop
endfacet
facet normal -0.0 -0.0 1.0
  outer loop
    vertex -50.891191939959256 -185.99317308526986 6.4375
    vertex -44.50866519138834 -205.63556043934028 6.4375
    vertex -50.63519710729114 -186.61119928219466 6.4375
  endloop
endfacet
facet normal -0.0 -0.0 1.0
  outer loop
    vertex -50.63519710729114 -186.61119928219466 6.4375
    vertex -44.50866519138834 -205.63556043934028 6.4375
    vertex -50.227968136884044 -187.1419104089852 6.4375
  endloop
endfacet
facet normal -0.0 -0.0 1.0
  outer loop
    vertex -50.227968136884044 -187.1419104089852 6.4375
    vertex -44.50866519138834 -205.63556043934028 6.4375
    vertex -49.697257010093516 -187.54913937939227 6.4375
  endloop
endfacet
facet normal -0.0 -0.0 1.0
  outer loop
    vertex -49.697257010093516 -187.54913937939227 6.4375
    vertex -44.50866519138834 -205.63556043934028 6.4375
    vertex -49.07923081316872 -187.8051342120604 6.4375
  endloop
endfacet
facet normal -0.0 -0.0 1.0
  outer loop
    vertex -49.07923081316872 -187.8051342120604 6.4375
    vertex -44.50866519138834 -205.63556043934028 6.4375
    vertex -48.416007010093516 -187.89244928219466 6.4375
  endloop
endfacet
facet normal -0.0 -0.0 1.0
  outer loop
    vertex -48.416007010093516 -187.89244928219466 6.4375
    vertex -44.50866519138834 -205.63556043934028 6.4375
    vertex -47.752783207018304 -187.8051342120604 6.4375
  endloop
endfacet
facet normal -0.0 -0.0 1.0
  outer loop
    vertex -47.752783207018304 -187.8051342120604 6.4375
    vertex -44.50866519138834 -205.63556043934028 6.4375
    vertex -47.134757010093516 -187.54913937939227 6.4375
  endloop
endfacet
facet normal -0.0 -0.0 1.0
  outer loop
    vertex -47.134757010093516 -187.54913937939227 6.4375
    vertex -44.50866519138834 -205.63556043934028 6.4375
    vertex -46.60404588330299 -187.1419104089852 6.4375
  endloop
endfacet
facet normal -0.0 -0.0 1.0
  outer loop
    vertex -46.60404588330299 -187.1419104089852 6.4375
    vertex -44.50866519138834 -205.63556043934028 6.4375
    vertex -46.19681691289589 -186.61119928219466 6.4375
  endloop
endfacet
facet normal -0.0 -0.0 1.0
  outer loop
    vertex -46.19681691289589 -186.61119928219466 6.4375
    vertex -44.50866519138834 -205.63556043934028 6.4375
    vertex -45.940822080227775 -185.99317308526986 6.4375
  endloop
endfacet
facet normal -0.0 -0.0 1.0
  outer loop
    vertex -45.940822080227775 -185.99317308526986 6.4375
    vertex -44.50866519138834 -205.63556043934028 6.4375
    vertex -45.853507010093516 -185.32994928219466 6.4375
  endloop
endfacet
facet normal -0.0 -0.0 1.0
  outer loop
    vertex -43.19616519138834 -188.71786113775454 6.4375
    vertex -44.50866519138834 -178.3017673351771 6.4375
    vertex -44.50866519138834 -188.71786113775454 6.4375
  endloop
endfacet
facet normal -0.0 -0.0 1.0
  outer loop
    vertex -44.50866519138834 -178.3017673351771 6.4375
    vertex -43.19616519138834 -188.71786113775454 6.4375
    vertex -43.19616519138834 -178.3017673351771 6.4375
  endloop
endfacet
facet normal -0.0 -0.0 1.0
  outer loop
    vertex -51.73184173361974 -173.80999635491858 6.4375
    vertex -116.07098385834593 -164.57306043934025 6.4375
    vertex -124.04434173361972 -173.80999635491858 6.4375
  endloop
endfacet
facet normal -0.0 -0.0 1.0
  outer loop
    vertex -116.07098385834593 -164.57306043934025 6.4375
    vertex -51.73184173361974 -173.80999635491858 6.4375
    vertex -44.50866519138834 -164.57306043934025 6.4375
  endloop
endfacet
facet normal -0.0 -0.0 1.0
  outer loop
    vertex -44.50866519138834 -164.57306043934025 6.4375
    vertex -51.73184173361974 -173.80999635491858 6.4375
    vertex -50.891191939959256 -184.66672547911946 6.4375
  endloop
endfacet
facet normal -0.0 -0.0 1.0
  outer loop
    vertex -50.891191939959256 -184.66672547911946 6.4375
    vertex -51.73184173361974 -173.80999635491858 6.4375
    vertex -50.978507010093516 -185.32994928219466 6.4375
  endloop
endfacet
facet normal -0.0 -0.0 1.0
  outer loop
    vertex -44.50866519138834 -164.57306043934025 6.4375
    vertex -50.891191939959256 -184.66672547911946 6.4375
    vertex -50.63519710729114 -184.04869928219466 6.4375
  endloop
endfacet
facet normal -0.0 -0.0 1.0
  outer loop
    vertex -44.50866519138834 -164.57306043934025 6.4375
    vertex -50.63519710729114 -184.04869928219466 6.4375
    vertex -50.227968136884044 -183.51798815540414 6.4375
  endloop
endfacet
facet normal -0.0 -0.0 1.0
  outer loop
    vertex -44.50866519138834 -164.57306043934025 6.4375
    vertex -50.227968136884044 -183.51798815540414 6.4375
    vertex -49.697257010093516 -183.11075918499705 6.4375
  endloop
endfacet
facet normal -0.0 -0.0 1.0
  outer loop
    vertex -44.50866519138834 -164.57306043934025 6.4375
    vertex -49.697257010093516 -183.11075918499705 6.4375
    vertex -49.07923081316873 -182.8547643523289 6.4375
  endloop
endfacet
facet normal -0.0 -0.0 1.0
  outer loop
    vertex -44.50866519138834 -164.57306043934025 6.4375
    vertex -49.07923081316873 -182.8547643523289 6.4375
    vertex -48.416007010093516 -182.76744928219466 6.4375
  endloop
endfacet
facet normal -0.0 -0.0 1.0
  outer loop
    vertex -44.50866519138834 -164.57306043934025 6.4375
    vertex -48.416007010093516 -182.76744928219466 6.4375
    vertex -47.75278320701831 -182.8547643523289 6.4375
  endloop
endfacet
facet normal -0.0 -0.0 1.0
  outer loop
    vertex -44.50866519138834 -164.57306043934025 6.4375
    vertex -47.75278320701831 -182.8547643523289 6.4375
    vertex -47.134757010093516 -183.11075918499705 6.4375
  endloop
endfacet
facet normal -0.0 -0.0 1.0
  outer loop
    vertex -44.50866519138834 -164.57306043934025 6.4375
    vertex -47.134757010093516 -183.11075918499705 6.4375
    vertex -46.60404588330299 -183.51798815540414 6.4375
  endloop
endfacet
facet normal -0.0 -0.0 1.0
  outer loop
    vertex -44.50866519138834 -164.57306043934025 6.4375
    vertex -46.60404588330299 -183.51798815540414 6.4375
    vertex -46.19681691289589 -184.04869928219466 6.4375
  endloop
endfacet
facet normal -0.0 -0.0 1.0
  outer loop
    vertex -44.50866519138834 -164.57306043934025 6.4375
    vertex -46.19681691289589 -184.04869928219466 6.4375
    vertex -45.940822080227775 -184.66672547911946 6.4375
  endloop
endfacet
facet normal -0.0 -0.0 1.0
  outer loop
    vertex -44.50866519138834 -164.57306043934025 6.4375
    vertex -45.940822080227775 -184.66672547911946 6.4375
    vertex -45.853507010093516 -185.32994928219466 6.4375
  endloop
endfacet
facet normal -0.0 -0.0 1.0
  outer loop
    vertex -44.50866519138834 -164.57306043934025 6.4375
    vertex -45.853507010093516 -185.32994928219466 6.4375
    vertex -44.50866519138834 -205.63556043934028 6.4375
  endloop
endfacet
facet normal -0.0 -0.0 1.0
  outer loop
    vertex -44.50866519138834 -164.57306043934025 6.4375
    vertex -44.50866519138834 -205.63556043934028 6.4375
    vertex -44.50866519138834 -188.71786113775454 6.4375
  endloop
endfacet
facet normal -0.0 -0.0 1.0
  outer loop
    vertex -44.50866519138834 -164.57306043934025 6.4375
    vertex -44.50866519138834 -188.71786113775454 6.4375
    vertex -44.50866519138834 -178.3017673351771 6.4375
  endloop
endfacet
facet normal -0.0 -0.0 1.0
  outer loop
    vertex -126.48707766092338 -163.07306043934025 6.4375
    vertex -124.04434173361972 -173.80999635491858 6.4375
    vertex -116.07098385834593 -163.07306043934025 6.4375
  endloop
endfacet
facet normal -0.0 -0.0 1.0
  outer loop
    vertex -124.04434173361972 -173.80999635491858 6.4375
    vertex -126.48707766092338 -163.07306043934025 6.4375
    vertex -124.04434173361972 -199.0599963549186 6.4375
  endloop
endfacet
facet normal -0.0 -0.0 1.0
  outer loop
    vertex -116.07098385834593 -163.07306043934025 6.4375
    vertex -124.04434173361972 -173.80999635491858 6.4375
    vertex -116.07098385834593 -164.57306043934025 6.4375
  endloop
endfacet
facet normal -1.0 0.0 0.0
  outer loop
    vertex -132.82116519138836 -164.57306043934025 6.4375
    vertex -132.82116519138836 -205.63556043934028 0.0
    vertex -132.82116519138836 -205.63556043934028 6.4375
  endloop
endfacet
facet normal -1.0 0.0 0.0
  outer loop
    vertex -132.82116519138836 -205.63556043934028 0.0
    vertex -132.82116519138836 -164.57306043934025 6.4375
    vertex -132.82116519138836 -164.57306043934025 0.0
  endloop
endfacet
facet normal -0.0 -0.0 1.0
  outer loop
    vertex -51.73184173361974 -199.0599963549186 3.1875
    vertex -124.04434173361972 -173.80999635491858 3.1875
    vertex -124.04434173361972 -199.0599963549186 3.1875
  endloop
endfacet
facet normal -0.0 -0.0 1.0
  outer loop
    vertex -124.04434173361972 -173.80999635491858 3.1875
    vertex -51.73184173361974 -199.0599963549186 3.1875
    vertex -51.73184173361974 -173.80999635491858 3.1875
  endloop
endfacet
facet normal -0.0 1.0 -0.0
  outer loop
    vertex -124.04434173361972 -199.0599963549186 6.4375
    vertex -51.73184173361974 -199.0599963549186 3.1875
    vertex -124.04434173361972 -199.0599963549186 3.1875
  endloop
endfacet
facet normal -0.0 1.0 -0.0
  outer loop
    vertex -51.73184173361974 -199.0599963549186 3.1875
    vertex -124.04434173361972 -199.0599963549186 6.4375
    vertex -51.73184173361974 -199.0599963549186 6.4375
  endloop
endfacet
facet normal -1.0 0.0 0.0
  outer loop
    vertex -51.73184173361974 -173.80999635491858 6.4375
    vertex -51.73184173361974 -199.0599963549186 3.1875
    vertex -51.73184173361974 -199.0599963549186 6.4375
  endloop
endfacet
facet normal -1.0 0.0 0.0
  outer loop
    vertex -51.73184173361974 -199.0599963549186 3.1875
    vertex -51.73184173361974 -173.80999635491858 6.4375
    vertex -51.73184173361974 -173.80999635491858 3.1875
  endloop
endfacet
facet normal 0.0 -1.0 0.0
  outer loop
    vertex -51.73184173361974 -173.80999635491858 6.4375
    vertex -124.04434173361972 -173.80999635491858 3.1875
    vertex -51.73184173361974 -173.80999635491858 3.1875
  endloop
endfacet
facet normal 0.0 -1.0 0.0
  outer loop
    vertex -124.04434173361972 -173.80999635491858 3.1875
    vertex -51.73184173361974 -173.80999635491858 6.4375
    vertex -124.04434173361972 -173.80999635491858 6.4375
  endloop
endfacet
facet normal 1.0 -0.0 -0.0
  outer loop
    vertex -124.04434173361972 -173.80999635491858 3.1875
    vertex -124.04434173361972 -199.0599963549186 6.4375
    vertex -124.04434173361972 -199.0599963549186 3.1875
  endloop
endfacet
facet normal 1.0 -0.0 -0.0
  outer loop
    vertex -124.04434173361972 -199.0599963549186 6.4375
    vertex -124.04434173361972 -173.80999635491858 3.1875
    vertex -124.04434173361972 -173.80999635491858 6.4375
  endloop
endfacet
facet normal -0.0 1.0 -0.0
  outer loop
    vertex -132.82116519138836 -164.57306043934025 6.4375
    vertex -126.48707766092338 -164.57306043934025 0.0
    vertex -132.82116519138836 -164.57306043934025 0.0
  endloop
endfacet
facet normal -0.0 1.0 -0.0
  outer loop
    vertex -126.48707766092338 -164.57306043934025 0.0
    vertex -132.82116519138836 -164.57306043934025 6.4375
    vertex -126.48707766092338 -164.57306043934025 6.4375
  endloop
endfacet
facet normal -0.0 1.0 -0.0
  outer loop
    vertex -116.07098385834593 -164.57306043934025 6.4375
    vertex -44.50866519138834 -164.57306043934025 0.0
    vertex -116.07098385834593 -164.57306043934025 0.0
  endloop
endfacet
facet normal -0.0 1.0 -0.0
  outer loop
    vertex -44.50866519138834 -164.57306043934025 0.0
    vertex -116.07098385834593 -164.57306043934025 6.4375
    vertex -44.50866519138834 -164.57306043934025 6.4375
  endloop
endfacet
facet normal -0.0 1.0 -0.0
  outer loop
    vertex -126.48707766092338 -163.07306043934025 6.4375
    vertex -116.07098385834593 -163.07306043934025 0.0
    vertex -126.48707766092338 -163.07306043934025 0.0
  endloop
endfacet
facet normal -0.0 1.0 -0.0
  outer loop
    vertex -116.07098385834593 -163.07306043934025 0.0
    vertex -126.48707766092338 -163.07306043934025 6.4375
    vertex -116.07098385834593 -163.07306043934025 6.4375
  endloop
endfacet
facet normal 1.0 -0.0 -0.0
  outer loop
    vertex -116.07098385834593 -163.07306043934025 0.0
    vertex -116.07098385834593 -164.57306043934025 6.4375
    vertex -116.07098385834593 -164.57306043934025 0.0
  endloop
endfacet
facet normal 1.0 -0.0 -0.0
  outer loop
    vertex -116.07098385834593 -164.57306043934025 6.4375
    vertex -116.07098385834593 -163.07306043934025 0.0
    vertex -116.07098385834593 -163.07306043934025 6.4375
  endloop
endfacet
facet normal -1.0 0.0 0.0
  outer loop
    vertex -126.48707766092338 -163.07306043934025 6.4375
    vertex -126.48707766092338 -164.57306043934025 0.0
    vertex -126.48707766092338 -164.57306043934025 6.4375
  endloop
endfacet
facet normal -1.0 0.0 0.0
  outer loop
    vertex -126.48707766092338 -164.57306043934025 0.0
    vertex -126.48707766092338 -163.07306043934025 6.4375
    vertex -126.48707766092338 -163.07306043934025 0.0
  endloop
endfacet
facet normal 0.0 -1.0 0.0
  outer loop
    vertex -44.50866519138834 -205.63556043934028 6.4375
    vertex -101.91288257641389 -205.63556043934028 0.0
    vertex -44.50866519138834 -205.63556043934028 0.0
  endloop
endfacet
facet normal 0.0 -1.0 0.0
  outer loop
    vertex -101.91288257641389 -205.63556043934028 0.0
    vertex -44.50866519138834 -205.63556043934028 6.4375
    vertex -101.91288257641389 -205.63556043934028 6.4375
  endloop
endfacet
facet normal 0.0 -1.0 0.0
  outer loop
    vertex -122.74507018156879 -205.63556043934028 6.4375
    vertex -132.82116519138836 -205.63556043934028 0.0
    vertex -122.74507018156879 -205.63556043934028 0.0
  endloop
endfacet
facet normal 0.0 -1.0 0.0
  outer loop
    vertex -132.82116519138836 -205.63556043934028 0.0
    vertex -122.74507018156879 -205.63556043934028 6.4375
    vertex -132.82116519138836 -205.63556043934028 6.4375
  endloop
endfacet
facet normal 0.0 -1.0 0.0
  outer loop
    vertex -112.32897637899131 -208.38556043934028 6.4375
    vertex -122.74507018156879 -208.38556043934028 0.0
    vertex -112.32897637899131 -208.38556043934028 0.0
  endloop
endfacet
facet normal 0.0 -1.0 0.0
  outer loop
    vertex -122.74507018156879 -208.38556043934028 0.0
    vertex -112.32897637899131 -208.38556043934028 6.4375
    vertex -122.74507018156879 -208.38556043934028 6.4375
  endloop
endfacet
facet normal -1.0 0.0 0.0
  outer loop
    vertex -122.74507018156879 -205.63556043934028 6.4375
    vertex -122.74507018156879 -208.38556043934028 0.0
    vertex -122.74507018156879 -208.38556043934028 6.4375
  endloop
endfacet
facet normal -1.0 0.0 0.0
  outer loop
    vertex -122.74507018156879 -208.38556043934028 0.0
    vertex -122.74507018156879 -205.63556043934028 6.4375
    vertex -122.74507018156879 -205.63556043934028 0.0
  endloop
endfacet
facet normal 1.0 -0.0 -0.0
  outer loop
    vertex -112.32897637899131 -208.19806043934028 0.0
    vertex -112.32897637899131 -208.38556043934028 6.4375
    vertex -112.32897637899131 -208.38556043934028 0.0
  endloop
endfacet
facet normal 1.0 -0.0 -0.0
  outer loop
    vertex -112.32897637899131 -208.38556043934028 6.4375
    vertex -112.32897637899131 -208.19806043934028 0.0
    vertex -112.32897637899131 -208.19806043934028 6.4375
  endloop
endfacet
facet normal 0.0 -1.0 0.0
  outer loop
    vertex -101.91288257641389 -208.19806043934028 6.4375
    vertex -112.32897637899131 -208.19806043934028 0.0
    vertex -101.91288257641389 -208.19806043934028 0.0
  endloop
endfacet
facet normal 0.0 -1.0 0.0
  outer loop
    vertex -112.32897637899131 -208.19806043934028 0.0
    vertex -101.91288257641389 -208.19806043934028 6.4375
    vertex -112.32897637899131 -208.19806043934028 6.4375
  endloop
endfacet
facet normal 1.0 -0.0 -0.0
  outer loop
    vertex -101.91288257641389 -205.63556043934028 0.0
    vertex -101.91288257641389 -208.19806043934028 6.4375
    vertex -101.91288257641389 -208.19806043934028 0.0
  endloop
endfacet
facet normal 1.0 -0.0 -0.0
  outer loop
    vertex -101.91288257641389 -208.19806043934028 6.4375
    vertex -101.91288257641389 -205.63556043934028 0.0
    vertex -101.91288257641389 -205.63556043934028 6.4375
  endloop
endfacet
facet normal 1.0 -0.0 -0.0
  outer loop
    vertex -44.50866519138834 -188.71786113775454 0.0
    vertex -44.50866519138834 -205.63556043934028 6.4375
    vertex -44.50866519138834 -205.63556043934028 0.0
  endloop
endfacet
facet normal 1.0 -0.0 -0.0
  outer loop
    vertex -44.50866519138834 -205.63556043934028 6.4375
    vertex -44.50866519138834 -188.71786113775454 0.0
    vertex -44.50866519138834 -188.71786113775454 6.4375
  endloop
endfacet
facet normal 1.0 -0.0 -0.0
  outer loop
    vertex -43.19616519138834 -178.3017673351771 0.0
    vertex -43.19616519138834 -188.71786113775454 6.4375
    vertex -43.19616519138834 -188.71786113775454 0.0
  endloop
endfacet
facet normal 1.0 -0.0 -0.0
  outer loop
    vertex -43.19616519138834 -188.71786113775454 6.4375
    vertex -43.19616519138834 -178.3017673351771 0.0
    vertex -43.19616519138834 -178.3017673351771 6.4375
  endloop
endfacet
facet normal 0.0 -1.0 0.0
  outer loop
    vertex -43.19616519138834 -188.71786113775454 6.4375
    vertex -44.50866519138834 -188.71786113775454 0.0
    vertex -43.19616519138834 -188.71786113775454 0.0
  endloop
endfacet
facet normal 0.0 -1.0 0.0
  outer loop
    vertex -44.50866519138834 -188.71786113775454 0.0
    vertex -43.19616519138834 -188.71786113775454 6.4375
    vertex -44.50866519138834 -188.71786113775454 6.4375
  endloop
endfacet
facet normal -0.0 1.0 -0.0
  outer loop
    vertex -44.50866519138834 -178.3017673351771 6.4375
    vertex -43.19616519138834 -178.3017673351771 0.0
    vertex -44.50866519138834 -178.3017673351771 0.0
  endloop
endfacet
facet normal -0.0 1.0 -0.0
  outer loop
    vertex -43.19616519138834 -178.3017673351771 0.0
    vertex -44.50866519138834 -178.3017673351771 6.4375
    vertex -43.19616519138834 -178.3017673351771 6.4375
  endloop
endfacet
facet normal -0.0 -0.0 1.0
  outer loop
    vertex -50.891191939959256 -185.99317308526986 5.25
    vertex -50.891191939959256 -184.66672547911946 5.25
    vertex -50.978507010093516 -185.32994928219466 5.25
  endloop
endfacet
facet normal -0.0 -0.0 1.0
  outer loop
    vertex -50.891191939959256 -184.66672547911946 5.25
    vertex -50.891191939959256 -185.99317308526986 5.25
    vertex -50.63519710729114 -186.61119928219466 5.25
  endloop
endfacet
facet normal -0.0 -0.0 1.0
  outer loop
    vertex -50.891191939959256 -184.66672547911946 5.25
    vertex -50.63519710729114 -186.61119928219466 5.25
    vertex -50.63519710729114 -184.04869928219466 5.25
  endloop
endfacet
facet normal -0.0 -0.0 1.0
  outer loop
    vertex -50.63519710729114 -184.04869928219466 5.25
    vertex -50.63519710729114 -186.61119928219466 5.25
    vertex -50.227968136884044 -187.1419104089852 5.25
  endloop
endfacet
facet normal -0.0 -0.0 1.0
  outer loop
    vertex -50.63519710729114 -184.04869928219466 5.25
    vertex -50.227968136884044 -187.1419104089852 5.25
    vertex -50.227968136884044 -183.51798815540414 5.25
  endloop
endfacet
facet normal -0.0 -0.0 1.0
  outer loop
    vertex -50.227968136884044 -183.51798815540414 5.25
    vertex -50.227968136884044 -187.1419104089852 5.25
    vertex -49.697257010093516 -187.54913937939227 5.25
  endloop
endfacet
facet normal -0.0 -0.0 1.0
  outer loop
    vertex -50.227968136884044 -183.51798815540414 5.25
    vertex -49.697257010093516 -187.54913937939227 5.25
    vertex -49.697257010093516 -183.11075918499705 5.25
  endloop
endfacet
facet normal -0.0 -0.0 1.0
  outer loop
    vertex -49.697257010093516 -183.11075918499705 5.25
    vertex -49.697257010093516 -187.54913937939227 5.25
    vertex -49.07923081316872 -187.8051342120604 5.25
  endloop
endfacet
facet normal -0.0 -0.0 1.0
  outer loop
    vertex -49.697257010093516 -183.11075918499705 5.25
    vertex -49.07923081316872 -187.8051342120604 5.25
    vertex -49.07923081316873 -182.8547643523289 5.25
  endloop
endfacet
facet normal -0.0 -0.0 1.0
  outer loop
    vertex -49.07923081316873 -182.8547643523289 5.25
    vertex -49.07923081316872 -187.8051342120604 5.25
    vertex -48.416007010093516 -182.76744928219466 5.25
  endloop
endfacet
facet normal -0.0 -0.0 1.0
  outer loop
    vertex -48.416007010093516 -182.76744928219466 5.25
    vertex -49.07923081316872 -187.8051342120604 5.25
    vertex -48.416007010093516 -187.89244928219466 5.25
  endloop
endfacet
facet normal -0.0 -0.0 1.0
  outer loop
    vertex -48.416007010093516 -182.76744928219466 5.25
    vertex -48.416007010093516 -187.89244928219466 5.25
    vertex -47.752783207018304 -187.8051342120604 5.25
  endloop
endfacet
facet normal -0.0 -0.0 1.0
  outer loop
    vertex -48.416007010093516 -182.76744928219466 5.25
    vertex -47.752783207018304 -187.8051342120604 5.25
    vertex -47.75278320701831 -182.8547643523289 5.25
  endloop
endfacet
facet normal -0.0 -0.0 1.0
  outer loop
    vertex -47.75278320701831 -182.8547643523289 5.25
    vertex -47.752783207018304 -187.8051342120604 5.25
    vertex -47.134757010093516 -183.11075918499705 5.25
  endloop
endfacet
facet normal -0.0 -0.0 1.0
  outer loop
    vertex -47.134757010093516 -183.11075918499705 5.25
    vertex -47.752783207018304 -187.8051342120604 5.25
    vertex -47.134757010093516 -187.54913937939227 5.25
  endloop
endfacet
facet normal -0.0 -0.0 1.0
  outer loop
    vertex -47.134757010093516 -183.11075918499705 5.25
    vertex -47.134757010093516 -187.54913937939227 5.25
    vertex -46.60404588330299 -187.1419104089852 5.25
  endloop
endfacet
facet normal -0.0 -0.0 1.0
  outer loop
    vertex -47.134757010093516 -183.11075918499705 5.25
    vertex -46.60404588330299 -187.1419104089852 5.25
    vertex -46.60404588330299 -183.51798815540414 5.25
  endloop
endfacet
facet normal -0.0 -0.0 1.0
  outer loop
    vertex -46.60404588330299 -183.51798815540414 5.25
    vertex -46.60404588330299 -187.1419104089852 5.25
    vertex -46.19681691289589 -186.61119928219466 5.25
  endloop
endfacet
facet normal -0.0 -0.0 1.0
  outer loop
    vertex -46.60404588330299 -183.51798815540414 5.25
    vertex -46.19681691289589 -186.61119928219466 5.25
    vertex -46.19681691289589 -184.04869928219466 5.25
  endloop
endfacet
facet normal -0.0 -0.0 1.0
  outer loop
    vertex -46.19681691289589 -184.04869928219466 5.25
    vertex -46.19681691289589 -186.61119928219466 5.25
    vertex -45.940822080227775 -185.99317308526986 5.25
  endloop
endfacet
facet normal -0.0 -0.0 1.0
  outer loop
    vertex -46.19681691289589 -184.04869928219466 5.25
    vertex -45.940822080227775 -185.99317308526986 5.25
    vertex -45.940822080227775 -184.66672547911946 5.25
  endloop
endfacet
facet normal -0.0 -0.0 1.0
  outer loop
    vertex -45.940822080227775 -184.66672547911946 5.25
    vertex -45.940822080227775 -185.99317308526986 5.25
    vertex -45.853507010093516 -185.32994928219466 5.25
  endloop
endfacet
facet normal -0.49999999999999645 0.8660254037844408 0.0
  outer loop
    vertex -47.134757010093516 -187.54913937939227 6.4375
    vertex -46.60404588330299 -187.1419104089852 5.25
    vertex -47.134757010093516 -187.54913937939227 5.25
  endloop
endfacet
facet normal -0.7071067811865394 0.7071067811865556 0.0
  outer loop
    vertex -46.60404588330299 -187.1419104089852 5.25
    vertex -47.134757010093516 -187.54913937939227 6.4375
    vertex -46.60404588330299 -187.1419104089852 6.4375
  endloop
endfacet
facet normal -0.8660254037844445 0.49999999999999006 0.0
  outer loop
    vertex -46.19681691289589 -186.61119928219466 6.4375
    vertex -46.60404588330299 -187.1419104089852 5.25
    vertex -46.60404588330299 -187.1419104089852 6.4375
  endloop
endfacet
facet normal -0.7071067811865394 0.7071067811865556 0.0
  outer loop
    vertex -46.60404588330299 -187.1419104089852 5.25
    vertex -46.19681691289589 -186.61119928219466 6.4375
    vertex -46.19681691289589 -186.61119928219466 5.25
  endloop
endfacet
facet normal -0.9659258262890692 0.2588190451025177 0.0
  outer loop
    vertex -45.940822080227775 -185.99317308526986 6.4375
    vertex -46.19681691289589 -186.61119928219466 5.25
    vertex -46.19681691289589 -186.61119928219466 6.4375
  endloop
endfacet
facet normal -0.8660254037844445 0.49999999999999006 0.0
  outer loop
    vertex -46.19681691289589 -186.61119928219466 5.25
    vertex -45.940822080227775 -185.99317308526986 6.4375
    vertex -45.940822080227775 -185.99317308526986 5.25
  endloop
endfacet
facet normal -1.0 1.7822219791293804e-17 0.0
  outer loop
    vertex -45.853507010093516 -185.32994928219466 6.4375
    vertex -45.940822080227775 -185.99317308526986 5.25
    vertex -45.940822080227775 -185.99317308526986 6.4375
  endloop
endfacet
facet normal -0.9659258262890692 0.2588190451025177 0.0
  outer loop
    vertex -45.940822080227775 -185.99317308526986 5.25
    vertex -45.853507010093516 -185.32994928219466 6.4375
    vertex -45.853507010093516 -185.32994928219466 5.25
  endloop
endfacet
facet normal -0.9659258262890692 -0.2588190451025177 0.0
  outer loop
    vertex -45.940822080227775 -184.66672547911946 6.4375
    vertex -45.853507010093516 -185.32994928219466 5.25
    vertex -45.853507010093516 -185.32994928219466 6.4375
  endloop
endfacet
facet normal -1.0 1.7822219791293804e-17 0.0
  outer loop
    vertex -45.853507010093516 -185.32994928219466 5.25
    vertex -45.940822080227775 -184.66672547911946 6.4375
    vertex -45.940822080227775 -184.66672547911946 5.25
  endloop
endfacet
facet normal -0.866025403784438 -0.5000000000000011 0.0
  outer loop
    vertex -46.19681691289589 -184.04869928219466 6.4375
    vertex -45.940822080227775 -184.66672547911946 5.25
    vertex -45.940822080227775 -184.66672547911946 6.4375
  endloop
endfacet
facet normal -0.9659258262890692 -0.2588190451025177 0.0
  outer loop
    vertex -45.940822080227775 -184.66672547911946 5.25
    vertex -46.19681691289589 -184.04869928219466 6.4375
    vertex -46.19681691289589 -184.04869928219466 5.25
  endloop
endfacet
facet normal -0.7071067811865424 -0.7071067811865529 0.0
  outer loop
    vertex -46.60404588330299 -183.51798815540414 6.4375
    vertex -46.19681691289589 -184.04869928219466 5.25
    vertex -46.19681691289589 -184.04869928219466 6.4375
  endloop
endfacet
facet normal -0.866025403784438 -0.5000000000000011 0.0
  outer loop
    vertex -46.19681691289589 -184.04869928219466 5.25
    vertex -46.60404588330299 -183.51798815540414 6.4375
    vertex -46.60404588330299 -183.51798815540414 5.25
  endloop
endfacet
facet normal -0.7071067811865424 -0.7071067811865529 0.0
  outer loop
    vertex -46.60404588330299 -183.51798815540414 6.4375
    vertex -47.134757010093516 -183.11075918499705 5.25
    vertex -46.60404588330299 -183.51798815540414 5.25
  endloop
endfacet
facet normal -0.5000000000000093 -0.8660254037844333 0.0
  outer loop
    vertex -47.134757010093516 -183.11075918499705 5.25
    vertex -46.60404588330299 -183.51798815540414 6.4375
    vertex -47.134757010093516 -183.11075918499705 6.4375
  endloop
endfacet
facet normal -0.5000000000000093 -0.8660254037844333 0.0
  outer loop
    vertex -47.134757010093516 -183.11075918499705 6.4375
    vertex -47.75278320701831 -182.8547643523289 5.25
    vertex -47.134757010093516 -183.11075918499705 5.25
  endloop
endfacet
facet normal -0.2588190451025281 -0.9659258262890664 0.0
  outer loop
    vertex -47.75278320701831 -182.8547643523289 5.25
    vertex -47.134757010093516 -183.11075918499705 6.4375
    vertex -47.75278320701831 -182.8547643523289 6.4375
  endloop
endfacet
facet normal -0.2588190451025281 -0.9659258262890664 0.0
  outer loop
    vertex -47.75278320701831 -182.8547643523289 6.4375
    vertex -48.416007010093516 -182.76744928219466 5.25
    vertex -47.75278320701831 -182.8547643523289 5.25
  endloop
endfacet
facet normal -6.683332421735164e-16 -0.9999999999999999 0.0
  outer loop
    vertex -48.416007010093516 -182.76744928219466 5.25
    vertex -47.75278320701831 -182.8547643523289 6.4375
    vertex -48.416007010093516 -182.76744928219466 6.4375
  endloop
endfacet
facet normal -6.683332421735164e-16 -0.9999999999999999 0.0
  outer loop
    vertex -48.416007010093516 -182.76744928219466 6.4375
    vertex -49.07923081316873 -182.8547643523289 5.25
    vertex -48.416007010093516 -182.76744928219466 5.25
  endloop
endfacet
facet normal 0.2588190451025294 -0.965925826289066 0.0
  outer loop
    vertex -49.07923081316873 -182.8547643523289 5.25
    vertex -48.416007010093516 -182.76744928219466 6.4375
    vertex -49.07923081316873 -182.8547643523289 6.4375
  endloop
endfacet
facet normal 0.2588190451025294 -0.965925826289066 0.0
  outer loop
    vertex -49.07923081316873 -182.8547643523289 6.4375
    vertex -49.697257010093516 -183.11075918499705 5.25
    vertex -49.07923081316873 -182.8547643523289 5.25
  endloop
endfacet
facet normal 0.500000000000011 -0.8660254037844324 0.0
  outer loop
    vertex -49.697257010093516 -183.11075918499705 5.25
    vertex -49.07923081316873 -182.8547643523289 6.4375
    vertex -49.697257010093516 -183.11075918499705 6.4375
  endloop
endfacet
facet normal 0.500000000000011 -0.8660254037844324 0.0
  outer loop
    vertex -49.697257010093516 -183.11075918499705 6.4375
    vertex -50.227968136884044 -183.51798815540414 5.25
    vertex -49.697257010093516 -183.11075918499705 5.25
  endloop
endfacet
facet normal 0.7071067811865424 -0.7071067811865529 0.0
  outer loop
    vertex -50.227968136884044 -183.51798815540414 5.25
    vertex -49.697257010093516 -183.11075918499705 6.4375
    vertex -50.227968136884044 -183.51798815540414 6.4375
  endloop
endfacet
facet normal 0.7071067811865424 -0.7071067811865529 0.0
  outer loop
    vertex -50.227968136884044 -183.51798815540414 5.25
    vertex -50.63519710729114 -184.04869928219466 6.4375
    vertex -50.63519710729114 -184.04869928219466 5.25
  endloop
endfacet
facet normal 0.8660254037844378 -0.5000000000000013 0.0
  outer loop
    vertex -50.63519710729114 -184.04869928219466 6.4375
    vertex -50.227968136884044 -183.51798815540414 5.25
    vertex -50.227968136884044 -183.51798815540414 6.4375
  endloop
endfacet
facet normal 0.8660254037844378 -0.5000000000000013 0.0
  outer loop
    vertex -50.63519710729114 -184.04869928219466 5.25
    vertex -50.891191939959256 -184.66672547911946 6.4375
    vertex -50.891191939959256 -184.66672547911946 5.25
  endloop
endfacet
facet normal 0.9659258262890692 -0.2588190451025177 0.0
  outer loop
    vertex -50.891191939959256 -184.66672547911946 6.4375
    vertex -50.63519710729114 -184.04869928219466 5.25
    vertex -50.63519710729114 -184.04869928219466 6.4375
  endloop
endfacet
facet normal 0.9659258262890692 -0.2588190451025177 0.0
  outer loop
    vertex -50.891191939959256 -184.66672547911946 5.25
    vertex -50.978507010093516 -185.32994928219466 6.4375
    vertex -50.978507010093516 -185.32994928219466 5.25
  endloop
endfacet
facet normal 1.0 0.0 0.0
  outer loop
    vertex -50.978507010093516 -185.32994928219466 6.4375
    vertex -50.891191939959256 -184.66672547911946 5.25
    vertex -50.891191939959256 -184.66672547911946 6.4375
  endloop
endfacet
facet normal 1.0 0.0 0.0
  outer loop
    vertex -50.978507010093516 -185.32994928219466 5.25
    vertex -50.891191939959256 -185.99317308526986 6.4375
    vertex -50.891191939959256 -185.99317308526986 5.25
  endloop
endfacet
facet normal 0.9659258262890692 0.2588190451025177 0.0
  outer loop
    vertex -50.891191939959256 -185.99317308526986 6.4375
    vertex -50.978507010093516 -185.32994928219466 5.25
    vertex -50.978507010093516 -185.32994928219466 6.4375
  endloop
endfacet
facet normal 0.9659258262890692 0.2588190451025177 0.0
  outer loop
    vertex -50.891191939959256 -185.99317308526986 5.25
    vertex -50.63519710729114 -186.61119928219466 6.4375
    vertex -50.63519710729114 -186.61119928219466 5.25
  endloop
endfacet
facet normal 0.8660254037844445 0.49999999999999006 0.0
  outer loop
    vertex -50.63519710729114 -186.61119928219466 6.4375
    vertex -50.891191939959256 -185.99317308526986 5.25
    vertex -50.891191939959256 -185.99317308526986 6.4375
  endloop
endfacet
facet normal 0.8660254037844445 0.49999999999999006 0.0
  outer loop
    vertex -50.63519710729114 -186.61119928219466 5.25
    vertex -50.227968136884044 -187.1419104089852 6.4375
    vertex -50.227968136884044 -187.1419104089852 5.25
  endloop
endfacet
facet normal 0.7071067811865394 0.7071067811865556 0.0
  outer loop
    vertex -50.227968136884044 -187.1419104089852 6.4375
    vertex -50.63519710729114 -186.61119928219466 5.25
    vertex -50.63519710729114 -186.61119928219466 6.4375
  endloop
endfacet
facet normal 0.7071067811865394 0.7071067811865556 0.0
  outer loop
    vertex -50.227968136884044 -187.1419104089852 6.4375
    vertex -49.697257010093516 -187.54913937939227 5.25
    vertex -50.227968136884044 -187.1419104089852 5.25
  endloop
endfacet
facet normal 0.4999999999999947 0.8660254037844418 0.0
  outer loop
    vertex -49.697257010093516 -187.54913937939227 5.25
    vertex -50.227968136884044 -187.1419104089852 6.4375
    vertex -49.697257010093516 -187.54913937939227 6.4375
  endloop
endfacet
facet normal 0.4999999999999947 0.8660254037844418 0.0
  outer loop
    vertex -49.697257010093516 -187.54913937939227 6.4375
    vertex -49.07923081316872 -187.8051342120604 5.25
    vertex -49.697257010093516 -187.54913937939227 5.25
  endloop
endfacet
facet normal 0.2588190451025281 0.9659258262890664 0.0
  outer loop
    vertex -49.07923081316872 -187.8051342120604 5.25
    vertex -49.697257010093516 -187.54913937939227 6.4375
    vertex -49.07923081316872 -187.8051342120604 6.4375
  endloop
endfacet
facet normal 0.2588190451025281 0.9659258262890664 0.0
  outer loop
    vertex -49.07923081316872 -187.8051342120604 6.4375
    vertex -48.416007010093516 -187.89244928219466 5.25
    vertex -49.07923081316872 -187.8051342120604 5.25
  endloop
endfacet
facet normal 6.683332421735164e-16 0.9999999999999999 0.0
  outer loop
    vertex -48.416007010093516 -187.89244928219466 5.25
    vertex -49.07923081316872 -187.8051342120604 6.4375
    vertex -48.416007010093516 -187.89244928219466 6.4375
  endloop
endfacet
facet normal 6.683332421735164e-16 0.9999999999999999 0.0
  outer loop
    vertex -48.416007010093516 -187.89244928219466 6.4375
    vertex -47.752783207018304 -187.8051342120604 5.25
    vertex -48.416007010093516 -187.89244928219466 5.25
  endloop
endfacet
facet normal -0.2588190451025294 0.965925826289066 0.0
  outer loop
    vertex -47.752783207018304 -187.8051342120604 5.25
    vertex -48.416007010093516 -187.89244928219466 6.4375
    vertex -47.752783207018304 -187.8051342120604 6.4375
  endloop
endfacet
facet normal -0.2588190451025294 0.965925826289066 0.0
  outer loop
    vertex -47.752783207018304 -187.8051342120604 6.4375
    vertex -47.134757010093516 -187.54913937939227 5.25
    vertex -47.752783207018304 -187.8051342120604 5.25
  endloop
endfacet
facet normal -0.49999999999999645 0.8660254037844408 0.0
  outer loop
    vertex -47.134757010093516 -187.54913937939227 5.25
    vertex -47.752783207018304 -187.8051342120604 6.4375
    vertex -47.134757010093516 -187.54913937939227 6.4375
  endloop
endfacet
endsolid case01
